<svg width="349" height="294" viewBox="0 0 349 294" fill="none" xmlns="http://www.w3.org/2000/svg">
<path d="M228.896 136.711C228.896 121.77 209.549 100.717 196.128 75.4526C192.926 69.4763 193.267 62.6168 196.946 56.8443L209.072 37.7604C193.948 62.8207 195.515 80.8179 272.087 157.017C304.104 188.869 222.492 175.762 161.521 197.63C175.487 192.061 192.79 183.504 205.189 173.588C218.95 162.383 229.168 149.411 228.896 136.711Z" fill="url(#paint0_linear_408_1824)"/>
<path d="M272.019 157.018C195.447 80.7505 193.881 62.8213 209.004 37.761L212.342 32.4637C212.479 32.3279 212.615 32.124 212.751 31.8524L314.8 194.846C317.595 199.329 316.914 204.694 312.962 208.565C309.011 212.436 302.607 214.134 296.613 212.776C244.769 201.57 199.739 197.291 155.459 199.872C157.366 199.193 159.342 198.446 161.454 197.563C222.425 175.762 303.97 188.87 272.019 157.018Z" fill="url(#paint1_linear_408_1824)"/>
<path d="M204.305 16.9788C204.1 19.6274 203.896 24.5852 203.351 28.3203L203.419 28.3884V28.4561C203.351 29.0674 203.215 29.5428 203.147 30.0863V30.1541C202.942 31.4446 202.67 32.531 202.329 33.0064L188.295 55.1466L175.693 75.0454L159.411 100.785C157.163 104.18 155.051 107.508 153.075 110.7C152.735 111.312 152.394 111.787 152.053 112.398C151.917 112.534 151.849 112.67 151.781 112.806C149.124 117.356 146.876 121.77 145.377 125.981C145.241 126.32 145.173 126.592 145.105 126.864C144.355 129.037 143.811 131.142 143.538 133.18C143.402 133.927 143.334 134.606 143.334 135.285C143.265 135.761 143.265 136.168 143.265 136.643C143.265 136.643 143.265 136.711 143.334 136.779V136.847V137.459C143.334 142.212 144.151 146.763 145.582 151.041C140.132 143.163 126.848 125.166 126.848 125.166C114.858 104.996 114.313 90.3938 120.376 78.7806L120.444 78.7128C133.864 53.109 179.303 41.7673 204.1 16.1638C204.237 15.8921 204.373 15.7563 204.509 15.6205C204.441 15.9601 204.373 16.4355 204.305 16.9788Z" fill="url(#paint2_linear_408_1824)"/>
<path d="M137.813 129.24C137.813 129.24 141.151 135.489 142.786 138.545C142.786 138.613 142.786 138.681 142.786 138.748C133.249 126.864 126.573 113.688 122.962 99.9015C120.373 90.0542 118.125 81.0214 121.599 75.3847L168.946 6.99516C171.603 2.71656 177.053 0 183.048 0C202.735 0 206.142 17.6577 204.575 27.2335C168.673 64.9258 100.89 59.4927 137.813 129.24Z" fill="url(#paint3_linear_408_1824)"/>
<path d="M195.45 171.416C191.839 172.57 187.615 173.929 184.686 174.744C140.133 187.715 121.944 187.036 115.54 178.615C115.2 178.275 114.927 177.868 114.791 177.528C107.161 164.828 121.467 137.187 117.856 110.497C117.856 110.361 117.788 110.225 117.788 110.089C122.012 122.042 128.552 133.588 137.203 143.978C148.58 157.697 160.774 169.582 179.372 171.823H179.441C181.825 172.163 184.277 172.299 186.866 172.231C188.161 172.231 189.386 172.163 190.681 172.027C191.499 171.959 192.316 171.891 193.065 171.756C193.202 171.756 193.27 171.687 193.406 171.687C193.61 171.687 193.883 171.619 194.224 171.552C194.224 171.552 194.36 171.484 194.428 171.484C194.768 171.484 195.109 171.484 195.45 171.416Z" fill="url(#paint4_linear_408_1824)"/>
<path d="M196.196 170.94C195.992 171.075 195.855 171.143 195.719 171.279H195.651C195.583 171.347 195.515 171.415 195.447 171.415C195.31 171.551 195.106 171.619 194.97 171.754H194.902C154.504 197.901 118.262 202.248 70.5069 212.707C64.4439 213.997 58.04 212.367 54.089 208.496C50.1377 204.625 49.3885 199.26 52.1813 194.709L113.63 95.8947C113.698 95.9624 113.698 95.9624 113.698 95.9624C113.97 97.2529 114.311 98.6112 114.583 99.9015C114.583 99.9015 114.651 100.105 114.651 100.173C115.06 101.871 115.469 103.569 116.014 105.199C116.082 105.267 116.082 105.335 116.082 105.403C116.15 105.674 116.218 106.014 116.355 106.217V106.285C116.627 107.168 116.899 108.051 117.24 108.934C117.308 109.138 117.376 109.274 117.444 109.477C117.444 109.545 117.444 109.613 117.512 109.613V109.681C121.328 136.711 106.613 164.691 114.719 177.391C114.924 177.799 115.196 178.138 115.469 178.478C122.009 186.628 140.334 187.103 184.342 174.335C186.659 173.656 189.724 172.705 192.722 171.754C192.79 171.754 192.858 171.687 192.926 171.687C193.539 171.483 194.152 171.279 194.765 171.075C194.902 171.007 194.97 171.007 195.106 170.94C195.515 171.075 195.855 171.007 196.196 170.94Z" fill="url(#paint5_linear_408_1824)"/>
<path d="M114.653 99.9691C115.334 101.939 115.879 103.84 116.288 105.81C115.675 103.908 115.13 101.939 114.653 99.9691Z" fill="url(#paint6_linear_408_1824)"/>
<path d="M167.791 194.982C189.931 188.055 214.183 185.202 234.075 182.757C256.829 180.041 274.745 177.936 278.016 171.212C279.65 167.816 277.538 163.266 271.475 157.29C231.418 117.356 211.254 92.7714 204.033 75.0457C199.06 62.8211 200.286 53.7209 204.441 44.8239L212.684 31.7845L213.025 32.3277C212.821 32.5993 212.684 32.8032 212.616 32.939C194.563 60.6481 190.544 75.1137 272.429 156.679C278.765 162.995 280.945 167.884 279.105 171.552C275.631 178.75 257.374 180.924 234.212 183.708C211.39 186.425 182.982 189.82 158.594 199.125L157.708 199.464C157.436 199.532 157.163 199.668 156.891 199.804C156.414 199.804 155.869 199.872 155.392 199.872C159.275 198.514 163.431 196.883 167.791 194.982Z" fill="url(#paint7_linear_408_1824)"/>
<path d="M196.13 171.008C195.994 171.076 195.858 171.144 195.722 171.28H195.653C195.381 171.415 195.176 171.619 194.904 171.755H194.836C194.359 171.891 193.814 172.095 193.269 172.23C190.203 173.181 187.002 174.268 184.549 174.947C161.387 181.738 144.628 184.998 133.116 184.998C126.303 184.998 121.262 183.844 117.855 181.603C108.931 175.694 111.248 163.198 114.177 147.306C116.561 134.199 119.218 119.597 116.152 105.403C116.221 105.607 116.289 105.742 116.357 105.946V106.014C116.629 106.897 116.902 107.78 117.242 108.663C117.311 108.866 117.379 109.002 117.447 109.206C117.447 109.206 117.447 109.342 117.515 109.342C117.583 109.546 117.651 109.817 117.787 110.089C117.992 110.7 118.196 111.311 118.469 111.923C119.695 124.079 117.447 136.304 115.403 147.442C112.542 162.994 110.294 175.219 118.673 180.787C127.461 186.628 148.307 184.455 184.209 173.996C185.844 173.521 187.819 172.909 189.931 172.23H189.999C190.203 172.162 190.408 172.095 190.612 172.027C191.089 171.891 191.566 171.687 192.111 171.551C193.065 171.415 193.95 171.348 194.904 171.144C195.313 171.076 195.722 171.008 196.13 170.94V171.008Z" fill="url(#paint8_linear_408_1824)"/>
<path d="M165.471 55.078C136.11 70.4267 112.948 82.5832 138.017 129.987C138.086 130.055 140.742 135.013 142.445 138.273C142.445 138.477 142.445 138.748 142.445 138.952C142.445 139.224 142.445 139.427 142.514 139.699C141.9 138.952 141.287 138.137 140.742 137.39C137.2 130.734 136.927 130.327 136.927 130.327C111.449 82.1758 136.178 69.2043 164.79 54.1951C178.074 47.2679 193.062 39.3898 204.37 27.2333C204.302 27.8445 204.234 28.5236 204.098 29.1348C192.789 40.7481 178.347 48.3546 165.471 55.078Z" fill="url(#paint9_linear_408_1824)"/>
<path opacity="0.29" d="M212.618 104.723L208.122 97.864L201.377 87.609L194.565 75.7919C194.565 75.7919 194.224 75.3845 193.815 74.5017C192.657 72.1245 191.09 66.284 195.587 56.776C196.132 55.4858 196.881 54.1275 197.699 52.7012L211.664 31.3083C211.664 31.3083 208.462 30.9687 206.691 26.2826C206.623 26.1468 206.555 26.011 206.555 25.8751C206.555 25.8751 206.487 26.9617 206.282 28.3199C206.078 29.882 205.737 31.7157 205.192 32.5308C204.715 33.3456 196.745 45.4343 188.911 57.3872L188.706 57.6588C180.804 69.6798 173.106 81.4966 173.106 81.4966L156.756 107.712L156.483 108.459L156.347 108.73L156.688 108.255C163.841 99.9694 174.4 94.7401 186.186 94.7401C195.996 94.7401 204.92 98.3395 211.8 104.384C212.073 104.452 212.345 104.587 212.618 104.723Z" fill="url(#paint10_linear_408_1824)"/>
<path d="M212.138 104.452L208.119 97.8643L193.813 74.5019L192.996 73.1436C192.996 73.1436 189.794 66.7596 195.039 57.6591L195.584 56.8443L211.593 31.3763L211.934 30.8331L207.165 23.1588C207.165 23.1588 206.961 24.585 206.62 26.3508C206.484 27.0299 206.348 27.709 206.212 28.4562C205.871 29.8145 205.53 31.1047 205.122 31.8518L188.84 57.5233L188.704 57.6591L156.685 108.255C163.838 99.9696 174.398 94.7403 186.183 94.7403C195.993 94.7403 204.917 98.3397 211.798 104.384C211.934 104.384 212.07 104.384 212.138 104.452Z" fill="url(#paint11_linear_408_1824)"/>
<path d="M224.607 121.974C224.13 121.295 234.826 155.388 195.927 180.041C195.927 180.041 245.521 150.769 224.607 121.974Z" fill="url(#paint12_linear_408_1824)"/>
<path d="M23.2985 246.394C23.7072 245.647 24.116 245.103 24.5928 244.696C25.0697 244.356 25.7509 244.153 26.7728 244.153C28.3396 244.153 29.4978 244.9 30.3152 246.394L53.4094 293.933H45.0981L37.4683 278.517H15.8729C15.3961 279.468 14.9192 280.42 14.4423 281.436C13.9655 282.455 13.4886 283.475 13.0117 284.494C12.3305 285.989 11.513 287.619 10.6955 289.315C9.878 291.012 9.12863 292.575 8.44741 293.933H0L23.2985 246.394ZM34.1302 271.386C33.4488 270.028 32.8358 268.738 32.2228 267.515C31.6096 266.361 31.0647 265.138 30.4514 263.916C30.1108 263.236 29.8384 262.625 29.5659 262.082C29.2935 261.539 29.0208 260.995 28.7483 260.452C28.4759 259.909 28.2034 259.298 27.8628 258.686C27.5221 258.075 27.1815 257.328 26.7728 256.445C25.8872 258.211 25.0697 259.909 24.3203 261.471C23.571 263.033 22.7535 264.663 21.936 266.428C21.6635 266.904 21.4591 267.311 21.3229 267.719C21.1866 268.059 20.9822 268.466 20.7779 268.806C20.5735 269.145 20.4372 269.553 20.2329 269.96C20.0285 270.368 19.8241 270.843 19.5516 271.386H34.1302Z" fill="white"/>
<path d="M119.422 261.401C119.422 262.827 119.082 264.253 118.469 265.543C117.856 266.834 117.038 267.988 115.948 269.007C114.858 270.026 113.564 270.841 112.133 271.52C110.634 272.131 109.068 272.539 107.365 272.742C109.136 274.644 110.907 276.614 112.746 278.719C114.585 280.756 116.493 282.794 118.332 284.832C118.945 285.51 119.695 286.258 120.376 287.072C121.126 287.887 121.875 288.702 122.624 289.584C123.373 290.399 124.123 291.214 124.804 292.031C125.486 292.776 126.167 293.456 126.712 294.067H116.425L97.214 272.81H79.706V265.747H105.866C106.683 265.747 107.501 265.611 108.182 265.408C108.931 265.204 109.544 264.864 110.021 264.457C110.566 264.049 110.975 263.642 111.247 263.098C111.52 262.555 111.656 262.012 111.656 261.469V255.696C111.656 255.153 111.52 254.609 111.247 254.134C110.975 253.591 110.566 253.183 110.021 252.776C109.476 252.436 108.863 252.096 108.182 251.893C107.433 251.689 106.683 251.553 105.866 251.553H77.8667V294.134H70.1687V247.886C70.1687 245.509 71.4631 244.354 74.1197 244.354H105.934C107.773 244.354 109.476 244.626 111.111 245.237C112.746 245.848 114.177 246.595 115.403 247.614C116.629 248.633 117.583 249.855 118.332 251.214C119.082 252.572 119.422 254.066 119.422 255.56V261.401Z" fill="white"/>
<path d="M187.478 244.354V251.417H166.768V294H159.07V251.417H138.292V244.354H187.478Z" fill="white"/>
<path d="M220.18 246.392C220.589 245.645 220.998 245.102 221.474 244.694C221.951 244.355 222.632 244.151 223.654 244.151C225.221 244.151 226.379 244.898 227.197 246.392L250.291 293.933H241.98L234.35 278.516H212.822C212.346 279.467 211.869 280.417 211.392 281.437C210.915 282.456 210.438 283.472 209.961 284.491C209.28 285.987 208.463 287.616 207.645 289.313C206.828 291.013 206.078 292.575 205.397 293.933H196.949L220.18 246.392ZM231.012 271.385C230.33 270.026 229.717 268.736 229.104 267.514C228.491 266.359 227.946 265.137 227.333 263.914C226.992 263.235 226.72 262.624 226.447 262.08C226.175 261.537 225.902 260.994 225.63 260.451C225.357 259.907 225.085 259.296 224.744 258.685C224.404 258.074 224.063 257.326 223.654 256.444C222.769 258.209 221.951 259.907 221.202 261.469C220.452 263.031 219.635 264.661 218.817 266.427C218.545 266.902 218.341 267.31 218.204 267.717C218.068 268.057 217.864 268.464 217.659 268.804C217.455 269.143 217.319 269.551 217.114 269.959C216.91 270.366 216.706 270.841 216.433 271.385H231.012Z" fill="white"/>
<path d="M317.871 290.265C317.871 292.776 316.644 294 314.26 294C313.033 294 312.011 293.524 311.192 292.642L311.263 292.709C308.06 289.45 305.062 286.325 302.2 283.405C299.34 280.484 296.478 277.497 293.618 274.576C292.256 273.15 290.894 271.792 289.529 270.366C288.167 268.94 286.804 267.581 285.375 266.087C283.945 264.661 282.583 263.167 281.083 261.673C279.652 260.179 278.085 258.617 276.518 256.987V294H268.752V247.683C268.752 246.46 269.093 245.509 269.842 244.898C270.523 244.287 271.545 243.947 272.908 243.947C273.248 244.015 273.589 244.151 274.066 244.355C274.475 244.558 274.951 244.898 275.497 245.373L310.376 281.027V244.151H318.006V290.265H317.871Z" fill="white"/>
<path d="M348.998 294H341.232V244.354H348.998V294Z" fill="white"/>
<defs>
<linearGradient id="paint0_linear_408_1824" x1="184.41" y1="65.9217" x2="221.25" y2="195.38" gradientUnits="userSpaceOnUse">
<stop offset="0.1838" stop-color="#939291"/>
<stop offset="0.2903" stop-color="#908F8F"/>
<stop offset="0.4726" stop-color="#848384"/>
<stop offset="0.6412" stop-color="#747576"/>
<stop offset="0.7906" stop-color="#666769"/>
<stop offset="0.9153" stop-color="#5C5C5E"/>
<stop offset="1" stop-color="#58595B"/>
</linearGradient>
<linearGradient id="paint1_linear_408_1824" x1="245.388" y1="215.506" x2="190.398" y2="81.5812" gradientUnits="userSpaceOnUse">
<stop offset="0.2054" stop-color="#939291"/>
<stop offset="0.2416" stop-color="#939291"/>
<stop offset="0.4365" stop-color="#8E8E8E"/>
<stop offset="0.6166" stop-color="#828384"/>
<stop offset="0.7763" stop-color="#77787A"/>
<stop offset="0.9095" stop-color="#6F7073"/>
<stop offset="1" stop-color="#6D6E71"/>
</linearGradient>
<linearGradient id="paint2_linear_408_1824" x1="116.555" y1="83.2922" x2="204.476" y2="83.2922" gradientUnits="userSpaceOnUse">
<stop offset="0.1838" stop-color="#DCB312"/>
<stop offset="0.3096" stop-color="#E1BD2E"/>
<stop offset="0.5491" stop-color="#EACD54"/>
<stop offset="0.75" stop-color="#F1D96A"/>
<stop offset="0.8865" stop-color="#F5DF73"/>
</linearGradient>
<linearGradient id="paint3_linear_408_1824" x1="192.149" y1="22.0082" x2="141.693" y2="105.859" gradientUnits="userSpaceOnUse">
<stop stop-color="#DAB00A"/>
<stop offset="1" stop-color="#F5DF73"/>
</linearGradient>
<linearGradient id="paint4_linear_408_1824" x1="113.428" y1="142.981" x2="156.146" y2="168.133" gradientUnits="userSpaceOnUse">
<stop stop-color="#467572"/>
<stop offset="0.2289" stop-color="#55897E"/>
<stop offset="0.5489" stop-color="#67A48D"/>
<stop offset="0.8175" stop-color="#74B696"/>
<stop offset="1" stop-color="#79BE9B"/>
</linearGradient>
<linearGradient id="paint5_linear_408_1824" x1="-37.9761" y1="3.43641" x2="-168.137" y2="-146.141" gradientUnits="userSpaceOnUse">
<stop stop-color="#467572"/>
<stop offset="0.2289" stop-color="#55897E"/>
<stop offset="0.5489" stop-color="#67A48D"/>
<stop offset="0.8175" stop-color="#74B696"/>
<stop offset="1" stop-color="#79BE9B"/>
</linearGradient>
<linearGradient id="paint6_linear_408_1824" x1="117.213" y1="101.939" x2="117.213" y2="109.386" gradientUnits="userSpaceOnUse">
<stop stop-color="#467572"/>
<stop offset="0.2289" stop-color="#55897E"/>
<stop offset="0.5489" stop-color="#67A48D"/>
<stop offset="0.8175" stop-color="#74B696"/>
<stop offset="1" stop-color="#79BE9B"/>
</linearGradient>
<linearGradient id="paint7_linear_408_1824" x1="227.306" y1="179.914" x2="193.255" y2="120.138" gradientUnits="userSpaceOnUse">
<stop offset="0.1838" stop-color="#939291"/>
<stop offset="0.2903" stop-color="#908F8F"/>
<stop offset="0.4726" stop-color="#848384"/>
<stop offset="0.6412" stop-color="#747576"/>
<stop offset="0.7906" stop-color="#666769"/>
<stop offset="0.9153" stop-color="#5C5C5E"/>
<stop offset="1" stop-color="#58595B"/>
</linearGradient>
<linearGradient id="paint8_linear_408_1824" x1="141.625" y1="188.638" x2="156.038" y2="138.341" gradientUnits="userSpaceOnUse">
<stop stop-color="#467572"/>
<stop offset="0.2289" stop-color="#55897E"/>
<stop offset="0.5489" stop-color="#67A48D"/>
<stop offset="0.8175" stop-color="#74B696"/>
<stop offset="1" stop-color="#79BE9B"/>
</linearGradient>
<linearGradient id="paint9_linear_408_1824" x1="149.616" y1="99.0307" x2="168.102" y2="50.8158" gradientUnits="userSpaceOnUse">
<stop stop-color="#F5DF73"/>
<stop offset="0.2132" stop-color="#EBCE56"/>
<stop offset="0.5398" stop-color="#E2BE31"/>
<stop offset="0.8138" stop-color="#DCB415"/>
<stop offset="1" stop-color="#DAB00A"/>
</linearGradient>
<linearGradient id="paint10_linear_408_1824" x1="156.355" y1="67.3001" x2="216.074" y2="67.3001" gradientUnits="userSpaceOnUse">
<stop stop-color="#F5DF73"/>
<stop offset="0.2132" stop-color="#F8DD5B"/>
<stop offset="0.5398" stop-color="#FBDB34"/>
<stop offset="0.8138" stop-color="#FDDA11"/>
<stop offset="1" stop-color="#FEDA00"/>
</linearGradient>
<linearGradient id="paint11_linear_408_1824" x1="156.662" y1="65.6629" x2="212.4" y2="65.6629" gradientUnits="userSpaceOnUse">
<stop stop-color="#F5DF73"/>
<stop offset="0.2132" stop-color="#EBCE56"/>
<stop offset="0.5398" stop-color="#E2BE31"/>
<stop offset="0.8138" stop-color="#DCB415"/>
<stop offset="1" stop-color="#DAB00A"/>
</linearGradient>
<linearGradient id="paint12_linear_408_1824" x1="230.029" y1="150.982" x2="196.197" y2="150.982" gradientUnits="userSpaceOnUse">
<stop offset="0.1838" stop-color="#939291"/>
<stop offset="0.2903" stop-color="#908F8F"/>
<stop offset="0.4726" stop-color="#848384"/>
<stop offset="0.6412" stop-color="#747576"/>
<stop offset="0.7906" stop-color="#666769"/>
<stop offset="0.9153" stop-color="#5C5C5E"/>
<stop offset="1" stop-color="#58595B"/>
</linearGradient>
</defs>
</svg>
